Coordinates
version=1
nRows=6
nColumns=36
inDegrees=yes

Units are S.I. units (second, meters, Newtons, ...)
If the header above contains a line with 'inDegrees', this indicates whether rotational values are in degrees (yes) or radians (no).

endheader
time	pelvis_tilt	pelvis_list	pelvis_rotation	pelvis_tx	pelvis_ty	pelvis_tz	hip_flexion_r	hip_adduction_r	hip_rotation_r	knee_angle_r	knee_angle_r_beta	ankle_angle_r	subtalar_angle_r	mtp_angle_r	hip_flexion_l	hip_adduction_l	hip_rotation_l	knee_angle_l	knee_angle_l_beta	ankle_angle_l	subtalar_angle_l	mtp_angle_l	lumbar_extension	lumbar_bending	lumbar_rotation	arm_flex_r	arm_add_r	arm_rot_r	elbow_flex_r	pro_sup_r	arm_flex_l	arm_add_l	arm_rot_l	elbow_flex_l	pro_sup_l
      0.00000000	      1.32392322	      0.72863117	      1.28274954	     -0.90116296	      1.30591026	     -0.07794972	     -8.11036609	     -2.56260563	     -0.27404817	      1.57919435	      0.02756214	      9.98282623	     -3.85960303	     -6.34174173	     -6.21172364	     -0.90415162	      3.11431008	      4.60274288	      0.08033302	      9.93621903	     -0.49578319	     -6.34174173	     -7.44900350	     -1.18321265	     -0.97193405	     -0.79905884	     -8.90391598	     27.38925687	    113.82736064	    103.21170611	      1.48081611	    -11.31434862	     28.84786367	    113.05443119	     99.08328517
      0.00416670	     -0.28319354	      0.25489505	      2.02587122	     -0.90107521	      1.30183932	     -0.07849532	     -6.91362363	     -1.64390105	      0.04941251	      0.84942048	      0.01482518	     11.64724607	     -1.32944592	     -6.68792551	     -5.07324348	     -1.27169777	      4.88503768	      3.16201263	      0.05518753	      8.73289321	      0.43966982	     -6.68792551	     -5.24763379	     -0.33424920	     -1.46919842	     -1.91556867	     -9.12244749	     27.15782507	    114.15086444	     97.25038162	      0.52532590	    -11.67364775	     29.32043652	    114.70614095	     93.36368529
      0.00833330	     -1.22044581	      0.32678025	      2.01413240	     -0.90165708	      1.30032700	     -0.07778434	     -6.01293560	     -1.73300119	     -0.53138987	      0.53347442	      0.00931089	     12.56974793	     -0.85729077	     -7.07845827	     -4.21226521	     -1.18940135	      4.75200146	      2.74076016	      0.04783529	      8.63614914	      1.61021862	     -7.07845827	     -4.77473171	     -0.39657620	     -1.56437230	     -2.36722794	     -9.66002158	     27.95023077	    114.50374600	     99.24143191	      0.26881823	    -11.54539067	     29.21388009	    115.71245717	     91.88272360
      0.01250000	     -1.07579170	      0.28870357	      1.93003418	     -0.90221616	      1.30074451	     -0.07747384	     -6.16099277	     -1.76870617	     -0.55900450	      0.42606291	      0.00743620	     13.16570284	     -0.41602799	     -7.08832671	     -4.85490788	     -1.20230063	      4.87322584	      1.73091671	      0.03021020	      8.14185014	      1.84065597	     -7.08832671	     -5.29173841	     -0.33285511	     -1.49241007	     -2.65707649	    -10.12042891	     28.83448081	    115.20279805	     99.17971801	      0.38706484	    -11.16130593	     29.24581555	    116.34532993	     91.54219270
      0.01666670	     -0.90504513	      0.19702784	      1.95208428	     -0.90274981	      1.30072854	     -0.07732427	     -6.36963170	     -1.67396121	     -0.62112122	      0.38195441	      0.00666636	     13.63332451	     -0.42047517	     -7.14552521	     -5.28206662	     -1.29184938	      5.09860421	      1.24768323	      0.02177618	      8.16613257	      2.00545652	     -7.14552521	     -5.84894196	     -0.18813557	     -1.51130186	     -2.68366492	    -10.14077546	     29.34969409	    115.44516375	     96.62474127	      0.50627445	    -11.00530884	     29.50855972	    117.25283023	     88.89786103
      0.02083330	     -0.76676797	      0.18789015	      1.95598342	     -0.90314976	      1.30109350	     -0.07720902	     -6.54242336	     -1.65451291	     -0.63171746	      0.36628209	      0.00639283	     13.87827527	     -0.51966077	     -7.18010897	     -5.55222266	     -1.31099832	      5.34726263	      0.99401221	      0.01734879	      8.22123302	      2.03838014	     -7.18010897	     -6.19586624	     -0.23696444	     -1.49165580	     -2.30589548	     -9.94067256	     29.72419631	    115.54709751	     95.28161097	      0.66736717	    -11.01911410	     29.85879070	    118.05234608	     87.39507377
